<svg width="24" height="24" viewBox="0 0 24 24" fill="none" xmlns="http://www.w3.org/2000/svg">
<path d="M11.9907 2.92981C11.4387 2.92981 10.9907 3.37781 10.9907 3.92981V10.9298H3.99072C3.43872 10.9298 2.99072 11.3778 2.99072 11.9298C2.99072 12.4818 3.43872 12.9298 3.99072 12.9298H10.9907V19.9298C10.9907 20.4818 11.4387 20.9298 11.9907 20.9298C12.5427 20.9298 12.9907 20.4818 12.9907 19.9298V12.9298H19.9907C20.5427 12.9298 20.9907 12.4818 20.9907 11.9298C20.9907 11.3778 20.5427 10.9298 19.9907 10.9298H12.9907V3.92981C12.9907 3.37781 12.5427 2.92981 11.9907 2.92981Z" fill="white"/>
</svg>
