<svg width="16" height="16" viewBox="0 0 16 16" fill="none" xmlns="http://www.w3.org/2000/svg">
<path d="M1 11.9999C1.00086 12.4198 1.09039 12.8347 1.26271 13.2175C1.43504 13.6004 1.68629 13.9425 2 14.2215V15.4999C2 15.6325 2.05268 15.7597 2.14645 15.8535C2.24021 15.9473 2.36739 15.9999 2.5 15.9999H3.5C3.63261 15.9999 3.75979 15.9473 3.85355 15.8535C3.94732 15.7597 4 15.6325 4 15.4999V14.9999H12V15.4999C12 15.6325 12.0527 15.7597 12.1464 15.8535C12.2402 15.9473 12.3674 15.9999 12.5 15.9999H13.5C13.6326 15.9999 13.7598 15.9473 13.8536 15.8535C13.9473 15.7597 14 15.6325 14 15.4999V14.2215C14.3137 13.9425 14.565 13.6004 14.7373 13.2175C14.9096 12.8347 14.9991 12.4198 15 11.9999V10.4999H1V11.9999ZM15.5 7.99994H2.5V2.164C2.50028 2.03277 2.53943 1.90456 2.61249 1.79555C2.68555 1.68654 2.78926 1.60161 2.91053 1.55147C3.0318 1.50133 3.16521 1.48823 3.29392 1.51382C3.42263 1.5394 3.54088 1.60254 3.63375 1.69525L4.23594 2.29712C3.82563 3.23087 3.99813 4.14431 4.50531 4.78869L4.5 4.794C4.40659 4.88772 4.35414 5.01464 4.35414 5.14697C4.35414 5.27929 4.40659 5.40621 4.5 5.49994L4.85344 5.85337C4.89987 5.89981 4.95499 5.93665 5.01566 5.96179C5.07633 5.98692 5.14136 5.99986 5.20703 5.99986C5.2727 5.99986 5.33773 5.98692 5.3984 5.96179C5.45907 5.93665 5.51419 5.89981 5.56063 5.85337L8.85344 2.56056C8.89988 2.51413 8.93672 2.459 8.96185 2.39833C8.98699 2.33766 8.99992 2.27264 8.99992 2.20697C8.99992 2.1413 8.98699 2.07627 8.96185 2.0156C8.93672 1.95493 8.89988 1.8998 8.85344 1.85337L8.5 1.49994C8.40624 1.40624 8.27911 1.3536 8.14656 1.3536C8.01401 1.3536 7.88688 1.40624 7.79313 1.49994L7.78781 1.50525C7.14344 0.99806 6.23062 0.82556 5.29625 1.23587L4.69438 0.633685C4.39172 0.331 4.00611 0.124864 3.5863 0.0413484C3.16649 -0.0421671 2.73134 0.000688806 2.33589 0.164496C1.94043 0.328304 1.60244 0.605705 1.36465 0.961616C1.12687 1.31753 0.999965 1.73596 1 2.164V7.99994H0.5C0.367392 7.99994 0.240215 8.05261 0.146447 8.14638C0.0526784 8.24015 0 8.36733 0 8.49994L0 8.99994C0 9.13254 0.0526784 9.25972 0.146447 9.35349C0.240215 9.44726 0.367392 9.49994 0.5 9.49994H15.5C15.6326 9.49994 15.7598 9.44726 15.8536 9.35349C15.9473 9.25972 16 9.13254 16 8.99994V8.49994C16 8.36733 15.9473 8.24015 15.8536 8.14638C15.7598 8.05261 15.6326 7.99994 15.5 7.99994Z" fill="white"/>
</svg>
