<svg width="16" height="16" viewBox="0 0 16 16" fill="none" xmlns="http://www.w3.org/2000/svg">
<mask id="mask0_1984_11548" style="mask-type:alpha" maskUnits="userSpaceOnUse" x="0" y="3" width="16" height="10">
<path fill-rule="evenodd" clip-rule="evenodd" d="M8.66699 4.33333H12.667C14.1403 4.33333 15.3337 5.52667 15.3337 7V12.3333C15.3337 12.7 15.0337 13 14.667 13C14.3003 13 14.0003 12.7 14.0003 12.3333V11H2.00033V12.3333C2.00033 12.7 1.70033 13 1.33366 13C0.966992 13 0.666992 12.7 0.666992 12.3333V3.66667C0.666992 3.3 0.966992 3 1.33366 3C1.70033 3 2.00033 3.3 2.00033 3.66667V9H7.33366V5.66667C7.33366 4.93333 7.93366 4.33333 8.66699 4.33333ZM6.66699 6.33333C6.66699 7.44 5.77366 8.33333 4.66699 8.33333C3.56033 8.33333 2.66699 7.44 2.66699 6.33333C2.66699 5.22667 3.56033 4.33333 4.66699 4.33333C5.77366 4.33333 6.66699 5.22667 6.66699 6.33333Z" fill="white"/>
</mask>
<g mask="url(#mask0_1984_11548)">
<rect width="16" height="16" fill="white"/>
</g>
</svg>
