<svg width="16" height="16" viewBox="0 0 16 16" fill="none" xmlns="http://www.w3.org/2000/svg">
<mask id="mask0_1984_11556" style="mask-type:alpha" maskUnits="userSpaceOnUse" x="2" y="2" width="12" height="12">
<path fill-rule="evenodd" clip-rule="evenodd" d="M3.53333 4.46667L2.56667 5.43333C2.36 5.64 2 5.49333 2 5.19333V2.33333C2 2.14667 2.14667 2 2.33333 2H5.19333C5.49333 2 5.64 2.36 5.43333 2.56667L4.46667 3.53333L5.92 4.97333C6.18 5.23333 6.18 5.66 5.92 5.92C5.66 6.18 5.23333 6.18 4.97333 5.92L3.53333 4.46667ZM11.5333 3.53333L10.5667 2.56667C10.36 2.36 10.5067 2 10.8067 2H13.6667C13.8533 2 14 2.14667 14 2.33333V5.19333C14 5.49333 13.64 5.64 13.4333 5.43333L12.4667 4.46667L11.0267 5.92C10.7667 6.18 10.34 6.18 10.08 5.92C9.82 5.66 9.82 5.23333 10.08 4.97333L11.5333 3.53333ZM5.43333 13.4333L4.46667 12.4667L5.92 11.0267C6.18 10.7667 6.18 10.34 5.92 10.08C5.66 9.82 5.23333 9.82 4.97333 10.08L3.53333 11.5333L2.56667 10.5667C2.36 10.36 2 10.5067 2 10.8067V13.6667C2 13.8533 2.14667 14 2.33333 14H5.19333C5.49333 14 5.64 13.64 5.43333 13.4333ZM12.4667 11.5333L13.4333 10.5667C13.64 10.36 14 10.5067 14 10.8067V13.6667C14 13.8533 13.8533 14 13.6667 14H10.8067C10.5067 14 10.36 13.64 10.5667 13.4333L11.5333 12.4667L10.08 11.0267C9.82 10.7667 9.82 10.34 10.08 10.08C10.34 9.82 10.7667 9.82 11.0267 10.08L12.4667 11.5333Z" fill="white"/>
</mask>
<g mask="url(#mask0_1984_11556)">
<rect width="16" height="16" fill="white"/>
</g>
</svg>
